<svg xmlns="http://www.w3.org/2000/svg" width="24" height="24" fill="currentColor" viewBox="0 0 24 24">
  <path d="M21 2h-6a1 1 0 0 0 0 2h3.586l-5.793 5.793a1 1 0 1 0 1.414 1.414L20 5.414V9a1 1 0 0 0 2 0V3a1 1 0 0 0-1-1zM4.754 3.048a2.5 2.5 0 0 1 2.737.61l2.11 2.348a2.5 2.5 0 0 1-.474 3.782l-.87.58a.5.5 0 0 0-.18.632c.56 1.262 1.49 2.475 2.779 3.764 1.289 1.289 2.502 2.22 3.764 2.779a.5.5 0 0 0 .632-.18l.58-.87a2.5 2.5 0 0 1 3.782-.474l2.348 2.11a2.5 2.5 0 0 1 .61 2.737 3.75 3.75 0 0 1-4.483 2.299c-2.768-.754-5.693-2.611-8.25-5.168s-4.414-5.482-5.168-8.25A3.75 3.75 0 0 1 4.754 3.048z"></path>
</svg>
