<svg xmlns="http://www.w3.org/2000/svg" viewBox="0 0 448 512" width="48" height="48" fill="#25D366">
  <path d="M380.9 97.1C339-5.6 235.1-28.1 143.8 19.8 60.7 63.8 22.4 156.7 48.2 243.5L0 480l240.2-48.2c88.2 25.9 181.1-12.4 225.1-95.6 47.8-91.3 25.3-195.2-84.4-238.9zM236.6 377.4c-38.2-1.8-75.4-16.1-105.1-39.8-27.7-21.8-50.8-50.8-66.1-83.4-13.7-28.9-21-60.6-20.4-92.9 1.1-56.6 33.7-108.4 86.4-132.8 64.1-29.7 139.2-19.3 193.6 26.3 51.6 43.5 73.4 112.6 58.7 178.1-13.5 59.5-62.5 106.3-122.5 116.9-12.2 2.2-24.6 3.1-36.6 3.1zm66.8-91.3c-5.2-2.3-30.7-15.2-35.4-16.8-4.7-1.6-8.1-2.3-11.5 2.3s-13.1 16.8-16.1 20.3c-2.9 3.1-5.8 3.5-10.7 1.2-5.2-2.3-21.9-8.1-41.8-25.9-15.5-13.9-25.9-31.1-28.9-36.3s-.3-8.1 2-10.6c2-2.1 4.7-5.5 7-8.2s3.1-4.7 4.7-7.8c1.6-3.1 .8-5.8-.4-8.2-1.2-2.3-11.1-26.4-15.2-36.1-4-9.7-8-8.3-11.1-8.5l-9.4-.2c-3.1 0-8.2 1.2-12.6 5.9s-16.5 16.2-16.5 39.5 16.9 45.8 19.3 49c2.3 3.1 33.2 50.6 81.5 70.9 11.4 4.7 20.2 7.5 26.9 9.6 11.3 3.6 21.6 3 29.8 1.8 9-1.3 27.5-11.3 31.3-22.2 3.8-10.8 3.8-20.1 2.6-22.2-1.2-2.1-4.2-3.4-8.7-5.6z"></path>
</svg>
